<?xml version="1.0" encoding="UTF-8" standalone="no"?>
<!-- Created with Inkscape (http://www.inkscape.org/) -->
<svg id="svg2" xmlns:rdf="http://www.w3.org/1999/02/22-rdf-syntax-ns#" xmlns="http://www.w3.org/2000/svg" xmlns:osb="http://www.openswatchbook.org/uri/2009/osb" height="2600" width="24" version="1.1" xmlns:cc="http://creativecommons.org/ns#" xmlns:dc="http://purl.org/dc/elements/1.1/">
<defs id="defs4"></defs>
<metadata id="metadata7">
<rdf:RDF>
<cc:Work rdf:about="">
<dc:format>image/svg+xml</dc:format>
<dc:type rdf:resource="http://purl.org/dc/dcmitype/StillImage"/>
<dc:title/>
</cc:Work>
</rdf:RDF>
</metadata>
<g id="layer1" transform="translate(0,1547.6378)">
<path id="path3517" fill="#e6e6e6" d="m21.84-1532.7-19.5,0c-1.2375,0-2.25,1.0125-2.25,2.25v15c0,1.2375,1.0125,2.25,2.25,2.25h19.5c1.2375,0,2.25-1.0125,2.25-2.25v-15c0-1.2375-1.0125-2.25-2.25-2.25zm-12.405,9.8994-6.3455,4.9428,0-11.757,6.3455,6.8145zm-5.2116-6.8994,15.732,0-7.8661,5.9063-7.8661-5.9063zm5.4588,7.1648,2.4073,2.5852,2.4073-2.5852,4.9349,6.3352-14.684,0,4.9348-6.3352zm5.0618-0.2654,6.3455-6.8145,0,11.757-6.3455-4.9428z"/>
<path id="path3576" fill="#e6e6e6" d="m21.127-1480.1-2.818-2.818c-0.87512-0.8751-2.6035-1.591-3.841-1.591h-10.5c-1.2375,0-2.25,1.0125-2.25,2.2501v19.5c0,1.2375,1.0125,2.25,2.25,2.25h16.5c1.2375,0,2.25-1.0125,2.25-2.25v-13.5c0-1.2375-0.71593-2.9659-1.591-3.841zm-5.909-1.2317c0.0515,0.019,0.10435,0.039,0.1584,0.062,0.42328,0.1754,0.71714,0.3791,0.8113,0.4733l2.818,2.818c0.0942,0.094,0.29793,0.388,0.47329,0.8113,0.0224,0.054,0.043,0.107,0.0618,0.1584h-4.3228v-4.3228zm4.5,17.823-15,0,0-18,9,0,0,6,6,0,0,12zm-13.5-9,12,0,0,1.5-12,0zm0,3,12,0,0,1.5-12,0zm0,3,12,0,0,1.5-12,0z"/>
<path id="path3587" fill="#e6e6e6" d="m1.8535-1513c-0.49928-0.1179-0.96708-0.445-1.3281-0.9285-0.25577-0.3426-0.25928-0.4602-0.25928-8.6791v-8.3318l0.33873-0.4441c0.69001-0.9046,0.048095-0.8567,11.482-0.8567s10.792-0.048,11.482,0.8567l0.33873,0.4441v8.3318c0,8.2189-0.0035,8.3365-0.25928,8.6791-0.37448,0.5016-0.82221,0.8035-1.3853,0.9341-0.60518,0.1403-19.814,0.135-20.41-0.01zm17.59-2.8703c0-0.1712-4.7829-6.2441-4.9442-6.2776-0.08189-0.017-0.65518,0.5215-1.274,1.1968l-1.1251,1.2277-1.1267-1.1968c-0.61968-0.6582-1.1996-1.1968-1.2888-1.1968-0.15467,0-4.9537,6.0602-4.9543,6.2563-0.0001611,0.052,3.3102,0.094,7.3563,0.094,4.0462,0,7.3566-0.047,7.3566-0.1039zm-13.038-4.1089c1.6992-1.3141,3.0921-2.4176,3.0954-2.4522,0.00806-0.084-6.2886-6.8419-6.4248-6.8955-0.058546-0.023-0.10645,2.6266-0.10645,5.8882,0,4.9725,0.027973,5.9236,0.17321,5.8895,0.095267-0.022,1.5634-1.1158,3.2626-2.43zm14.799-3.4687c0-3.2565-0.04671-5.9021-0.10379-5.879-0.05709,0.023-1.5264,1.5698-3.2652,3.4372-2.7434,2.9463-3.1376,3.4191-2.9814,3.5753,0.44795,0.448,6.0531,4.7748,6.1932,4.7808,0.12362,0.01,0.15719-1.2578,0.15719-5.9143zm-5.1363-2.8966c2.1333-1.5989,3.8787-2.9571,3.8787-3.0181,0-0.063-3.4042-0.111-7.8701-0.111-5.6003,0-7.857,0.039-7.8247,0.1364,0.053793,0.1614,7.657,5.8921,7.8234,5.8967,0.06269,0,1.8594-1.3051,3.9927-2.904z"/>
<path id="path3589" fill="#e6e6e6" d="m2.9924-1461c-0.22965-0.1132-0.56919-0.4046-0.75453-0.6475l-0.33698-0.4418-0.033574-10.424c-0.037419-11.618-0.085226-10.945,0.82733-11.641l0.44397-0.3388,5.9702-0.035c7.8424-0.046,7.4814-0.1457,10.539,2.9119,1.9433,1.9433,2.263,2.3885,2.7651,3.851,0.222,0.6466,0.23746,1.1623,0.23746,7.9225,0,3.977-0.04242,7.3822-0.09428,7.5671-0.135,0.4813-0.70642,1.1159-1.1848,1.3157-0.33365,0.1394-2.0539,0.171-9.186,0.1687-7.8674,0-8.8186-0.024-9.193-0.2086zm16.829-8.6542,0-6.0991-3.0181,0-3.0181,0,0-3.0197,0-3.0197-4.5586,0.033-4.5586,0.033-0.032265,9.0858-0.032266,9.0858,7.609,0,7.609,0,0-6.0991zm-0.25151-7.5515c0-0.6756-3.6578-4.3323-4.3335-4.3323-0.03734,0-0.06789,0.9903-0.06789,2.2007v2.2007h2.2007c1.2104,0,2.2007-0.031,2.2007-0.069z"/>
<path id="path3591" fill="#e6e6e6" d="m6.2394-1471.8,0-0.6917,5.9733,0,5.9733,0,0,0.6917,0,0.6916-5.9733,0-5.9733,0,0-0.6916z"/>
<path id="path3593" fill="#e6e6e6" d="m6.2394-1468.8,0-0.6917,5.9733,0,5.9733,0,0,0.6917,0,0.6916-5.9733,0-5.9733,0,0-0.6916z"/>
<path id="path3595" fill="#e6e6e6" d="m6.2394-1465.7,0-0.6916,5.9733,0,5.9733,0,0,0.6916,0,0.6917-5.9733,0-5.9733,0,0-0.6917z"/>
<path id="path3682" fill="#e6e6e6" d="m22.522-1428.6c0.82842,0,1.5-0.6716,1.5-1.5v-3h-3v-1.5h-19.5c-0.825,0-1.5,0.675-1.5,1.5v21c0,0.825,0.67491,1.5,1.5,1.5h19.5v-6h1.5c0.82842,0,1.5-0.6716,1.5-1.5v-3h-3v-1.5h1.5c0.82842,0,1.5-0.6716,1.5-1.5v-3h-3v-1.5h1.5zm-9,0.01c1.6526,0,2.9923,1.3397,2.9923,2.9923s-1.3397,2.9923-2.9923,2.9923-2.9923-1.3397-2.9923-2.9923,1.3397-2.9923,2.9923-2.9923zm-7.5,16.492-1.5,0,0-21,1.5,0,0,21zm12-4.5-9,0,0-1.5c0-1.6569,1.3432-3,3-3h3c1.6569,0,3,1.3431,3,3v1.5z"/>
<path id="path3809" fill="#e6e6e6" d="m1.1453-1410.5c-0.38564-0.1169-0.66054-0.3412-0.86575-0.7063l-0.1957-0.3482,0.023271-10.939c0.02317-10.892,0.024066-10.94,0.20661-11.185,0.10084-0.135,0.29383-0.328,0.42888-0.4288,0.24414-0.1823,0.30251-0.1835,10.243-0.2067l9.9972-0.023v0.7569,0.757h1.5186,1.5186l-0.02916,1.6673c-0.02685,1.5352-0.04466,1.6922-0.22484,1.9819-0.34266,0.5509-0.75071,0.708-1.8394,0.708h-0.9438v0.8003,0.8003h1.5117,1.5117l-0.0039,1.5339c-0.0051,2.0029-0.13243,2.3788-0.92978,2.7449-0.26656,0.1224-0.57293,0.1638-1.2227,0.1653h-0.86699v0.8003,0.8003h1.5186,1.5186l-0.02916,1.6673c-0.02685,1.5351-0.04466,1.6922-0.22484,1.9819-0.34266,0.5509-0.75071,0.708-1.8394,0.708h-0.9438v3.0233,3.0233l-9.8036-0.01c-5.392,0-9.9071-0.039-10.034-0.077zm4.8984-11.875,0-10.537-0.8003,0-0.8003,0,0,10.537,0,10.537,0.8003,0,0.8003,0,0-10.537zm11.991,4.824c-0.02668-1.0098-0.0603-1.2375-0.23519-1.5928-0.30664-0.623-0.82739-1.161-1.409-1.4557l-0.52075-0.2639h-2.3564c-2.3359,0-2.3603,0-2.8001,0.2223-0.60321,0.3023-1.1682,0.8849-1.4491,1.4942-0.20393,0.4424-0.23817,0.6502-0.27018,1.6403l-0.036663,1.1338h4.5543,4.5543l-0.03113-1.1782zm-3.5432-4.9783c1.5652-0.4796,2.4538-2.3558,1.8621-3.9317-0.37039-0.9864-1.2946-1.7359-2.3434-1.9004-2.2026-0.3453-3.9717,1.6156-3.3986,3.7674,0.15581,0.5851,0.26772,0.7847,0.70734,1.2616,0.7898,0.8568,1.9987,1.1629,3.1725,0.8031z"/>
<path id="path3813" fill="#e6e6e6" d="m10.668-1328.4,0-5.9577,1.4228,0,1.4228,0,0,5.9577,0,5.9578-1.4228,0-1.4228,0,0-5.9578z"/>
<path id="path3815" fill="#e6e6e6" d="m11.201-1312.4c-3.2034-0.2355-6.3952-2.2191-8.0562-5.0065-1.3274-2.2277-1.8004-5.0493-1.2732-7.5957,0.12651-0.611,0.56428-1.8678,0.84136-2.4154,0.8928-1.7645,2.4349-3.3967,4.1753-4.4192,0.5926-0.3481,1.8771-0.9087,2.0822-0.9087,0.065373,0,0.096339,0.4833,0.096339,1.5036v1.5037l-0.64468,0.3567c-1.7483,0.9673-3.1239,2.7388-3.6366,4.6834-0.24586,0.9325-0.26865,2.7314-0.046056,3.6348,0.55859,2.2672,2.204,4.2529,4.2878,5.1745,1.8263,0.8076,4.2994,0.8076,6.1258,0,2.0845-0.9219,3.7356-2.9152,4.2861-5.1745,0.21781-0.8938,0.1975-2.7098-0.04026-3.5986-0.5635-2.1066-2.0057-3.9046-3.9075-4.8717l-0.37792-0.1922v-1.5098c0-1.0248,0.03095-1.5099,0.09634-1.5099,0.05299,0,0.40312,0.1222,0.77807,0.2715,3.5831,1.4272,6.1707,4.9184,6.4882,8.7541,0.26208,3.166-0.78834,6.0225-3.0432,8.2757-2.2668,2.2651-5.0137,3.2809-8.2319,3.0442z"/>
<path id="path3895" fill="#e6e6e6" d="m9.7867-1361c-0.038216-0.1222-0.1172-0.5109-0.17552-0.8636-0.16548-1.0008-1.0938-2.2443-2.1079-2.8235-1.3613-0.7775-2.4014-0.8444-4.305-0.2769-0.30196,0.09-0.52064-0.1835-1.4477-1.8109l-1.092-1.9168,0.60905-0.5071c0.33498-0.2789,0.79884-0.8816,1.0308-1.3393,0.98305-1.94,0.70228-3.8812-0.77502-5.3585l-0.8536-0.8536,1.0576-1.8396c0.5817-1.0118,1.0852-1.8676,1.1189-1.9018,0.033709-0.034,0.35355,0.034,0.71075,0.1522,2.728,0.9003,5.645-0.7427,6.1042-3.4381l0.12646-0.7423,2.2439-0.05,2.2439-0.05,0.21443,0.8939c0.42959,1.7907,1.8161,3.1723,3.5586,3.546,0.8078,0.1732,1.5992,0.1065,2.9341-0.2473,0.29823-0.079,0.52896,0.2097,1.4284,1.7877l1.0727,1.882-0.83299,0.833c-1.8973,1.8972-1.789,4.9398,0.2391,6.7205l0.587,0.5154-1.0861,1.8655c-0.63972,1.0987-1.1888,1.8509-1.336,1.8303-0.13745-0.019-0.61004-0.1249-1.0502-0.2346-2.0219-0.5037-4.4414,0.6811-5.2251,2.5587-0.12775,0.3061-0.28847,0.8566-0.35716,1.2234l-0.12489,0.6669h-2.2206c-1.6208,0-2.2393-0.06-2.2901-0.2223zm4.3489-7.2772c3.0682-1.3156,3.8177-5.5566,1.4052-7.9508-1.8482-1.8342-5.0056-1.8578-6.8672-0.051-0.94491,0.917-1.3542,1.8495-1.4415,3.2841-0.22929,3.7671,3.3755,6.2307,6.9035,4.7179z"/>
<path id="path3947" fill="#CCC" d="m12.063-1284.5c-6.627,0-12,5.373-12,12s5.373,12,12,12,12-5.373,12-12-5.373-12-12-12zm6,13.5-4.5,0,0,4.5-3,0,0-4.5-4.5,0,0-3,4.5,0,0-4.5,3,0,0,4.5,4.5,0,0,3z"/>
<path id="path3956" fill="#CCC" d="m12.019-1234.5c-6.627,0-12,5.373-12,12s5.373,12,12,12,12-5.373,12-12-5.373-12-12-12zm6,13.5-4.5,0,0,4.5-3,0,0-4.5-4.5,0,0-3,4.5,0,0-4.5,3,0,0,4.5,4.5,0,0,3z"/>
<path id="path4008" fill="#ececec" d="m17.227-1166.8c-0.44419-0.07-0.45431-1.281-0.45431-1.281s1.3052-1.281,1.5896-3.0036c0.76529,0,1.2378-1.8313,0.4726-2.4756,0.0319-0.6783,0.98362-5.3245-3.8343-5.3245s-3.8662,4.6462-3.8343,5.3245c-0.76533,0.6443-0.29269,2.4756,0.47255,2.4756,0.28439,1.7226,1.5897,3.0036,1.5897,3.0036s-0.0101,1.2109-0.45431,1.281c-1.4308,0.2257-6.7736,2.562-6.7736,5.124h9,9c0-2.562-5.3428-4.8983-6.7736-5.124zm-9.1626,0.4086c1.0334-0.6363,2.2881-1.226,3.3173-1.5802-0.36918-0.5258-0.78033-1.2407-1.039-2.0874-0.36108-0.2945-0.65494-0.7156-0.8437-1.2329-0.18905-0.5181-0.26068-1.0981-0.20175-1.6332,0.0423-0.3842,0.15182-0.7422,0.31992-1.0568-0.10196-1.0918-0.17377-3.2351,1.2292-4.7984,0.54408-0.6062,1.2318-1.042,2.0555-1.3051-0.14705-1.5178-0.91782-3.2993-3.9013-3.2993-4.8179,0-3.8662,4.6462-3.8343,5.3244-0.76533,0.6443-0.29269,2.4757,0.47255,2.4757,0.28439,1.7226,1.5897,3.0036,1.5897,3.0036s-0.0101,1.2109-0.45431,1.2809c-1.4308,0.2258-6.7736,2.5621-6.7736,5.1241h7.7249c0.11039-0.072,0.22279-0.1439,0.33886-0.2154z"/>
<path id="path4067" fill="#CCC" d="m9.7283-1113.6c-0.0188,0.019-0.0383,0.038-0.0563,0.057-1.8811,1.7992-4.8729,1.8345-6.6872,0.072-1.9246-1.8114-1.9628-4.435,0.033-6.4533,0.0158-0.016,0.0285-0.032,0.0443-0.048,0.0188-0.017,0.0368-0.036,0.0548-0.053l12.39-12.041v0.01l0.003-0.01,0.0983-0.096c1.1445-1.0891,2.9596-1.1086,4.0606-0.038,0.66228,0.9436,1.0793,2.8419-0.0367,3.9459l-0.10275,0.1005-1.1723,1.1378-1.0755,1.0464-9.0746,8.8165h-0.005l-1.047,1.0171-0.0285-0.035-0.0263,0.029-0.0518,0.057c-0.005,0-0.01,0.01-0.0135,0.01-0.41852,0.3779-1.0643,0.3809-1.4596,0-0.39152-0.3811-0.39077-0.9391-0.00075-1.3546,0.0127-0.012,0.0202-0.026,0.033-0.038l1.1355-1.104,8.3141-8.0786-1.1378-1.1032-8.3141,8.08-1.0095,1.1018c-0.003,0-0.006,0-0.01,0.01-0.009,0.01-0.0165,0.017-0.0255,0.027-1.0373,1.0357-1.1806,2.5411-0.15751,3.5363,1.0238,0.9938,2.7016,0.9151,3.7666-0.094h0.002l0.021-0.022h0.006c0.002,0,0.004,0,0.005-0.01l11.289-10.782,1.1708-1.1393,0.10426-0.1h-0.002c1.7671-1.7423,0.92777-5.0057,0.0735-6.1862-1.7386-1.689-4.6007-1.6478-6.3925,0.094-0.0263,0.025-0.048,0.053-0.0735,0.079h-0.003l-12.392,12.042h0.002c-0.01,0.01-0.0202,0.017-0.0308,0.028-0.0172,0.016-0.033,0.037-0.0503,0.054l-0.018,0.017h0.00075c-2.4578,2.4616-2.4983,6.3324-0.069,8.6958,2.4533,2.3843,6.4938,2.3243,9.0228-0.1336,0.0105-0.01,0.018-0.02,0.0285-0.031h0.003l13.147-12.777-1.137-1.1048-13.15,12.775z"/>
<path id="path4185" fill="#CCC" d="m21.003-1034.5-21,0,0,24,24,0,0-21-3-3zm-9,3,3,0,0,6-3,0,0-6zm9,18-18,0,0-18,1.5,0,0,7.5,13.5,0,0-7.5,1.7573,0,1.2427,1.2426,0,16.757z"/>
<path id="path4303" fill="#CCC" d="m23.509-965.35-10.794-9.2522c0.50269-0.9444,0.78792-2.0222,0.78792-3.1667,0-3.728-3.0221-6.75-6.75-6.75-0.68189,0-1.34,0.1015-1.9604,0.2895l3.8998,3.8998c0.58336,0.5833,0.58336,1.5379,0,2.1213l-2.3787,2.3787c-0.58336,0.5833-1.538,0.5833-2.1213,0l-3.8998-3.8998c-0.18802,0.6205-0.28955,1.2786-0.28955,1.9605,0,3.7279,3.0221,6.75,6.75,6.75,1.1446,0,2.2223-0.2853,3.1668-0.788l9.2522,10.794c0.5369,0.6263,1.4535,0.6615,2.0368,0.078l2.3787-2.3787c0.58331-0.5833,0.54811-1.4999-0.0782-2.0368z"/>
<path id="path4372" fill="#CCC" d="m9.0061-919.47,3-1.5,10.5-10.5-1.5-1.5-10.5,10.5-1.5,3zm-2.2195,5.3226c-0.74138-1.5639-1.539-2.3616-3.103-3.103l2.3226-6.3935,3-1.8261,9-9h-4.5l-9,9-4.5,15,15-4.5,9-9v-4.5l-9,9-1.8261,3"/>
<path id="path4431" fill="#CCC" d="m6.0061-876.99a6,6,0,0,0,12,0,6,6,0,1,0,-12,0zm12,7.5-12,0c-3.3137,0-6,2.6864-6,6v1.5h0.18905,23.622,0.18905v-1.5c0-3.3136-2.6863-6-6-6z"/>
<path id="path4490" fill="#CCC" d="m6.0058-830.02-3-3-1.5,0,0,1.5,3,3zm1.5-4.5,1.5,0,0,3-1.5,0zm6,7.5,3,0,0,1.5-3,0zm1.5-4.5,0-1.5-1.5,0-3,3,1.5,1.5zm-15,4.5,3,0,0,1.5-3,0zm7.5,6,1.5,0,0,3-1.5,0zm-6,0,0,1.5,1.5,0,3-3-1.5-1.5zm22.172,7.1719-14.909-14.909c-0.43753-0.4376-1.1534-0.4376-1.591,0l-1.409,1.409c-0.43753,0.4375-0.43753,1.1534,0,1.591l14.909,14.909c0.43754,0.4375,1.1535,0.4375,1.591,0l1.409-1.4091c0.43753-0.4375,0.43753-1.1534,0-1.5909zm-12.422-7.9219-4.5-4.5,1.5-1.5,4.5,4.5-1.5,1.5z"/>
<path id="path4559" fill="#CCC" d="m12.006-784.55c-6.6274,0-12,1.6789-12,3.75v2.25l9,9v7.5c0,0.8284,1.3431,1.5,3,1.5,1.6568,0,3-0.6716,3-1.5v-7.5l9-9v-2.25c0-2.0711-5.3726-3.75-12-3.75zm-9.7879,3.2537c0.56118-0.3201,1.3496-0.6239,2.28-0.8786,2.0612-0.5643,4.7275-0.8751,7.5079-0.8751,2.7803,0,5.4467,0.3108,7.5079,0.8751,0.93038,0.2547,1.7188,0.5585,2.28,0.8786,0.37013,0.2111,0.5701,0.3896,0.66319,0.4963-0.0931,0.1067-0.29311,0.2852-0.66319,0.4963-0.56123,0.3201-1.3496,0.6239-2.28,0.8786-2.0611,0.5643-4.7275,0.8751-7.5079,0.8751s-5.4467-0.3108-7.5079-0.8751c-0.93038-0.2547-1.7188-0.5585-2.28-0.8786-0.37013-0.2111-0.5701-0.3896-0.66324-0.4963,0.0931-0.1067,0.29311-0.2852,0.66324-0.4963z"/>
<path id="path4568" fill="#CCC" d="m12.007-734.53c-6.6274,0-12,1.6789-12,3.75v2.25l9,9v7.5c0,0.8284,1.3431,1.5,3,1.5,1.6568,0,3-0.6716,3-1.5v-7.5l9-9v-2.25c0-2.0711-5.3726-3.75-12-3.75zm-9.7879,3.2537c0.56118-0.3201,1.3496-0.6239,2.28-0.8786,2.0612-0.5643,4.7275-0.8751,7.5079-0.8751,2.7803,0,5.4467,0.3108,7.5079,0.8751,0.93038,0.2547,1.7188,0.5585,2.28,0.8786,0.37013,0.2111,0.5701,0.3896,0.66319,0.4963-0.0931,0.1067-0.29311,0.2852-0.66319,0.4963-0.56123,0.3201-1.3496,0.6239-2.28,0.8786-2.0611,0.5643-4.7275,0.8751-7.5079,0.8751s-5.4467-0.3108-7.5079-0.8751c-0.93038-0.2547-1.7188-0.5585-2.28-0.8786-0.37013-0.2111-0.5701-0.3896-0.66324-0.4963,0.0931-0.1067,0.29311-0.2852,0.66324-0.4963z"/>
<path id="path4679" fill="#CCC" d="m9.0061-630.04,3,0,0,1.5-3,0zm4.5,0,3,0,0,1.5-3,0zm7.5,0,0,6-4.5,0,0-1.5,3,0,0-3-1.5,0,0-1.5zm-13.5,4.5,3,0,0,1.5-3,0zm4.5,0,3,0,0,1.5-3,0zm-7.5-3,0,3,1.5,0,0,1.5-3,0,0-6,4.5,0,0,1.5zm4.5,7.5,3,0,0,1.5-3,0zm4.5,0,3,0,0,1.5-3,0zm7.5,0,0,6-4.5,0,0-1.5,3,0,0-3-1.5,0,0-1.5zm-13.5,4.5,3,0,0,1.5-3,0zm4.5,0,3,0,0,1.5-3,0zm-7.5-3,0,3,1.5,0,0,1.5-3,0,0-6,4.5,0,0,1.5zm18-13.5-21,0,0,21,21,0,0-21zm1.5-1.5,0,24-24,0,0-24,24,0z"/>
<path id="path4738" fill="#CCC" d="m18.006-584.56,6,0,0,24-6,0zm-9,6,6,0,0,18-6,0zm-9,6,6,0,0,12-6,0z"/>
<path id="path4826" fill="#CCC" d="m23.787-515.26c-0.000094,0-0.000187,0-0.000281-0.0005l-7.2807-7.2808,7.2807-7.2809c0.000094,0,0.000187,0,0.000281-0.0005,0.07837-0.078,0.13505-0.17,0.17138-0.2675,0.09952-0.2667,0.04275-0.5785-0.17166-0.7929l-3.4394-3.4394c-0.21441-0.2144-0.52617-0.2711-0.79284-0.1716-0.0975,0.036-0.18914,0.093-0.26761,0.1714l-0.000187,0.0004-7.2808,7.2809-7.2808-7.2808c-0.000094,0-0.000141,0-0.000234-0.0005-0.07842-0.078-0.17002-0.135-0.26752-0.1713-0.26672-0.1-0.57848-0.043-0.79289,0.1716l-3.4394,3.4394c-0.2144,0.2144-0.27112,0.5262-0.17161,0.7928,0.0364,0.098,0.0931,0.1892,0.17138,0.2676,0.00009,0,0.00014,0,0.00023,0.0004l7.2809,7.2809-7.2809,7.2809c-0.00004,0-0.00014,0-0.00018,0.0004-0.0783,0.079-0.135,0.17-0.17143,0.2675-0.0996,0.2667-0.0428,0.5785,0.17161,0.7929l3.4394,3.4394c0.21445,0.2144,0.52622,0.2711,0.79289,0.1716,0.0975-0.036,0.18914-0.093,0.26756-0.1714,0.000047,0,0.000141,0,0.000235-0.0004l7.2808-7.2809,7.2808,7.2809h0.000281c0.07847,0.078,0.17002,0.135,0.26752,0.1714,0.26667,0.1,0.57853,0.043,0.79284-0.1716l3.4394-3.4394c0.21441-0.2144,0.27117-0.5263,0.17166-0.7929-0.03638-0.098-0.09305-0.1891-0.17142-0.2675z"/>
<path id="path4905" fill="#CCC" d="m19.74-482.46-15.287,0c-0.97015,0-1.7639,0.7937-1.7639,1.7639v11.759c0,0.9702,0.79376,1.7639,1.7639,1.7639h15.287c0.97015,0,1.7639-0.7937,1.7639-1.7639v-11.759c0-0.9702-0.79376-1.7639-1.7639-1.7639zm-9.7247,7.7607-4.9746,3.875,0-9.2173,4.9746,5.3423zm-4.0857-5.4088,12.333,0-6.1667,4.6302-6.1667-4.6302zm4.2795,5.6169,1.8872,2.0268,1.8872-2.0268,3.8687,4.9666-11.512,0,3.8687-4.9666zm3.9683-0.2081,4.9746-5.3423,0,9.2173-4.9746-3.875z"/>
<path id="path4955" fill="#CCC" d="m0.0017154-413.37,4.6434,4.6433,0-2.9021,4.6433,0,0.0000193-3.4825-4.6434,0,0-2.9021z"/>
<path id="path5005" fill="#CCC" d="m24.08-463.27-4.4547-4.4547,0,2.7842-4.4547,0-0.000018,3.3411,4.4547,0,0,2.7842z"/>
<path id="path5018" fill="#CCC" d="m19.752-432.42-15.287,0c-0.97015,0-1.7639,0.7937-1.7639,1.7639v11.759c0,0.9702,0.79376,1.7639,1.7639,1.7639h15.287c0.97015,0,1.7639-0.7937,1.7639-1.7639v-11.759c0-0.9702-0.79376-1.7639-1.7639-1.7639zm-9.7247,7.7607-4.9746,3.875,0-9.2173,4.9746,5.3423zm-4.0857-5.4088,12.333,0-6.1667,4.6302-6.1667-4.6302zm4.2795,5.6169,1.8872,2.0268,1.8872-2.0268,3.8687,4.9666-11.512,0,3.8687-4.9666zm3.9683-0.2081,4.9746-5.3423,0,9.2173-4.9746-3.875z"/>
<path id="path5044" fill="#CCC" d="m0.0055295-363.34,4.6434,4.6433,0-2.9021,4.6433,0,0.0000193-3.4825-4.6434,0,0-2.9021z"/>
<path id="path5046" fill="#CCC" d="m19.744-382.39-15.287,0c-0.97015,0-1.7639,0.7937-1.7639,1.7639v11.759c0,0.9702,0.79376,1.7639,1.7639,1.7639h15.287c0.97015,0,1.7639-0.7937,1.7639-1.7639v-11.759c0-0.9702-0.79376-1.7639-1.7639-1.7639zm-9.7247,7.7607-4.9746,3.875,0-9.2173,4.9746,5.3423zm-4.0856-5.4088,12.333,0-6.1667,4.6302-6.1667-4.6302zm4.2795,5.6169,1.8872,2.0268,1.8872-2.0268,3.8687,4.9666-11.512,0,3.8687-4.9666zm3.9683-0.2081,4.9746-5.3423,0,9.2173-4.9746-3.875z"/>
<path id="path5048" fill="#CCC" d="m4.1707-363.34,4.6434,4.6433,0-2.9021,4.6433,0,0.000019-3.4825-4.6434,0,0-2.9021z"/>
<path id="path5141" fill="#CCC" d="m-0.0057824-232,24,0,0,5.1428-24,0zm0,6.8571,24,0,0,5.1429-24,0zm0,6.8571,24,0,0,5.1429-24,0z"/>
<path id="path5191" fill="#CCC" d="m23.263-314.09-5.6848-4.835c-0.58767-0.5289-1.2162-0.7717-1.7239-0.7483,1.3419-1.5719,2.1526-3.6112,2.1526-5.8401,0-4.9706-4.0294-9-9-9-4.9705,0-9,4.0294-9,9s4.0294,9,9,9c2.2289,0,4.2682-0.8106,5.8401-2.1526-0.0234,0.5078,0.21938,1.1363,0.74827,1.7239l4.835,5.6848c0.82786,0.9199,2.1802,0.9974,3.0052,0.1725,0.82496-0.825,0.74747-2.1773-0.17236-3.0052zm-14.256-5.4234c-3.3137,0-6-2.6863-6-6s2.6863-6,6-6,6,2.6863,6,6-2.6863,6-6,6z"/>
<path id="path5200" fill="#CCC" d="m23.263-264.12-5.6848-4.835c-0.58767-0.5289-1.2162-0.7717-1.7239-0.7483,1.3419-1.5719,2.1526-3.6112,2.1526-5.8401,0-4.9706-4.0294-9-9-9-4.9705,0-9,4.0294-9,9s4.0294,9,9,9c2.2289,0,4.2682-0.8106,5.8401-2.1526-0.0234,0.5078,0.21938,1.1363,0.74827,1.7239l4.835,5.6848c0.82786,0.9199,2.1802,0.9974,3.0052,0.1725,0.82496-0.825,0.74747-2.1773-0.17236-3.0052zm-14.256-5.4234c-3.3137,0-6-2.6863-6-6s2.6863-6,6-6,6,2.6863,6,6-2.6863,6-6,6z"/>
<path id="path5272" fill="#CCC" d="m10.461-115.91-4.8106-5.5606,1.3713-1.3713,3.4394,2.6893,6.4393-5.6893,1.3714,1.3712zm8.9947-15.621c0.002,0,0.004,0,0.005,0.01v17.989c-0.002,0-0.004,0-0.005,0.01h-14.989c-0.002,0-0.004,0-0.005-0.01v-17.989c0.002,0,0.004,0,0.005-0.01h-3.0054v18c0,1.65,1.35,3,3,3h15c1.65,0,3-1.35,3-3v-18h-3.0053zm-4.4947,0,0-1.5c0-0.8284-0.67158-1.5-1.5-1.5h-3c-0.82842,0-1.5,0.6716-1.5,1.5v1.5h-3v3h12v-3h-3zm-1.5,0-3,0,0-1.5,3,0,0,1.5z"/>
<path id="path5332" fill="#808080" d="m19.56-24.537-5.5,0,0-5.5c0-0.2761-0.22387-0.5-0.5-0.5h-3c-0.27613,0-0.5,0.2239-0.5,0.5v5.5h-5.5c-0.27613,0-0.5,0.2239-0.5,0.5v3c0,0.2761,0.22387,0.5,0.5,0.5h5.5v5.5c0,0.2761,0.22387,0.5,0.5,0.5h3c0.27613,0,0.5-0.2239,0.5-0.5v-5.5h5.5c0.27613,0,0.5-0.2239,0.5-0.5v-3c0-0.2761-0.22387-0.5-0.5-0.5z"/>
<path id="path5392" fill="#808080" d="m4.1012,25.958,0,3c0,0.2761,0.22387,0.5,0.5,0.5h15c0.27613,0,0.5-0.2239,0.5-0.5v-3c0-0.2761-0.22387-0.5-0.5-0.5h-15c-0.27613,0-0.5,0.2239-0.5,0.5z"/>
<path id="path5452" fill="#ececec" d="m18.006-1081.5,0-3-3,0,0,3-6,0,0-3-3,0,0,3-6,0,0,3,24,0,0-3zm-15,12,18,0,0,3-18,0zm0-6,18,0,0,3-18,0zm0,15,15,0,3-3-18,0z"/>
<path id="path5512" fill="#ececec" d="m19.506-662.8,4.5-12-19.5,0-4.5,12zm-16.5-13.5-3,13.5,0-19.5,6.75,0,3,3,9.75,0,0,3z"/>
<path id="path5572" fill="#808080" d="m16.542,572.06c1.1948,0,2.2671-0.6503,3-1.1422v9.3076c-0.73294,0.492-1.8052,1.1424-3,1.1424s-2.2671-0.3543-3-0.8462c-0.73294-0.4919-1.8052-0.8461-3-0.8461s-2.267,0.608-3,1.0999v-9.3076c0.73297-0.492,1.8052-1.1,3-1.1s2.2671,0.3541,3,0.8461c0.73294,0.4919,1.8052,0.8461,3,0.8461zm-11-2.6922c0.55228,0,1,0.4477,1,1v15h-2v-15c0-0.5523,0.44772-1,1-1z"/>
<path id="path5642" fill="#808080" d="m11.996,625.77c-0.88618,0-1.6071,0.721-1.6071,1.6072s0.72096,1.6071,1.6071,1.6071c0.88618,0,1.6071-0.7209,1.6071-1.6071s-0.72096-1.6072-1.6071-1.6072zm0-1.8214c1.8936,0,3.4286,1.535,3.4286,3.4286,0,1.8935-1.535,3.4285-3.4286,3.4285s-3.4286-1.535-3.4286-3.4285c0-1.8936,1.535-3.4286,3.4286-3.4286zm6.5224,8.3348c0.44636,0.4463,0.44632,1.1699,0,1.6162s-1.1699,0.4463-1.6162,0l-1.1429-1.1429c-0.44636-0.4463-0.44636-1.1699,0-1.6162,0.44629-0.4463,1.1699-0.4464,1.6162,0l1.1428,1.1429zm-10.286-10.28c0.44636,0.4464,0.44632,1.17,0,1.6163s-1.1699,0.4463-1.6162,0l-1.1428-1.1429c-0.44636-0.4463-0.44636-1.1699,0-1.6162,0.44628-0.4463,1.1699-0.4464,1.6162,0l1.1429,1.1428zm8.6695-1.1428c0.44632-0.4464,1.1699-0.4463,1.6162,0,0.44635,0.4463,0.44635,1.1699,0.00003,1.6162l-1.1428,1.1429c-0.44636,0.4463-1.1699,0.4463-1.6162,0-0.44636-0.4463-0.44636-1.1699,0-1.6163l1.1428-1.1428zm-10.286,10.286c0.44633-0.4464,1.1699-0.4463,1.6162,0,0.44636,0.4463,0.44636,1.1699,0,1.6162l-1.1429,1.1429c-0.44632,0.4463-1.1699,0.4463-1.6162,0-0.44632-0.4463-0.44636-1.1699,0-1.6162l1.1428-1.1429zm5.38-11.77c0.63118,0,1.1429,0.5117,1.1429,1.1428v1.1429c0,0.6312-0.51168,1.1428-1.1429,1.1428-0.63118,0-1.1429-0.5116-1.1429-1.1428v-1.1429c0-0.6311,0.51168-1.1428,1.1429-1.1428zm0,12.571c0.63118,0,1.1429,0.5116,1.1429,1.1429v1.1428c0,0.6312-0.51168,1.1429-1.1429,1.1429-0.63118,0-1.1429-0.5117-1.1429-1.1429v-1.1428c0-0.6313,0.51168-1.1429,1.1429-1.1429zm-8-4.5714c0-0.6312,0.51168-1.1429,1.1429-1.1429h1.1428c0.63118,0,1.1429,0.5117,1.1429,1.1429s-0.51168,1.1428-1.1429,1.1428h-1.1428c-0.63118,0-1.1429-0.5116-1.1429-1.1428zm12.571,0c0-0.6312,0.51164-1.1429,1.1429-1.1429h1.1428c0.63122,0,1.1429,0.5117,1.1429,1.1429s-0.51164,1.1428-1.1429,1.1428h-1.1428c-0.63122,0-1.1429-0.5116-1.1429-1.1428z"/>
<path id="path5712" fill="#808080" d="m7.2887,85.455,0-16,2.6667,0,0,7.3334,6.6667-6.6667,0,14.667-6.6667-6.6667,0,7.3333z"/>
<path id="path5772" fill="#808080" d="m5.6805,169.37,13.333,8-13.333,8z"/>
<path id="path5822" fill="#808080" d="m16.666,219.47,0,16-2.6667,0,0-7.3333-6.6667,6.6667,0-14.667,6.6667,6.6667,0-7.3333z"/>
<path id="path5831" fill="#808080" d="m18.335,119.37-13.333,8,13.333,8z"/>
<path id="path5837" fill="#CCC" d="m7.2887,285.47,0-16,2.6667,0,0,7.3334,6.6667-6.6667,0,14.667-6.6667-6.6667,0,7.3333z"/>
<path id="path5839" fill="#CCC" d="m5.6615,369.42,13.333,8-13.333,8z"/>
<path id="path5841" fill="#CCC" d="m16.666,419.48,0,16-2.6667,0,0-7.3333-6.6667,6.6667,0-14.667,6.6667,6.6667,0-7.3333z"/>
<path id="path5843" fill="#CCC" d="m18.328,319.35-13.333,8,13.333,8z"/>
<path id="path5906" fill="#808080" d="m12.028,969.32c-4.418,0-8,3.582-8,8s3.582,8,8,8,8-3.582,8-8-3.582-8-8-8zm4,9-3,0,0,3-2,0,0-3-3,0,0-2,3,0,0-3,2,0,0,3,3,0,0,2z"/>
<path id="path5966" fill="#CCC" d="m14.242,533.72-6.2114-6.1136,3.0814-3.0329,3.13,3.0807,6.7071-6.6015,3.0814,3.0329-9.7886,9.6344zm-4.52-6.1136,4.52,4.4488,8.0972-7.9695-1.39-1.3681-6.7071,6.6015-3.13-3.0807-1.39,1.3681z"/>
<path id="path6026" fill="#808080" d="m21.522,471.13-7.5,7.5-3.5-3.5-2.5,2.5,6,6,10-10z"/>
<path id="path6076" fill="#808080" d="m13.945,919.36-8,8,8,8,4,0-8-8,8-8z"/>
<path id="path6136" fill="#808080" d="m12,869.38-8,8,5,0,0,8,6,0,0-8,5,0z"/>
<path id="path6186" fill="#808080" d="m16.231,735.46c1.777-3.2192,2.0764-8.1298-4.9041-7.966v3.966l-6-6,6-6v3.8808c8.3588-0.21784,9.2902,7.3784,4.9041,12.119z"/>
<path id="path6236" fill="#808080" d="m12.797,773.28,0-3.8808,6,6-6,6,0-3.966c-6.9805-0.16378-6.6811,4.7468-4.9041,7.966-4.3861-4.7408-3.4547-12.337,4.9041-12.119z"/>
<path id="path6245" fill="#808080" d="m11.502,830.45c1.2217-2.2132,1.4275-5.5892-3.3716-5.4766v2.7266l-4.125-4.125,4.125-4.125v2.6681c5.7467-0.14977,6.387,5.0726,3.3716,8.3319z"/>
<path id="path6275" fill="#808080" d="m15.893,827.05,0-2.668,4.125,4.125-4.125,4.125,0-2.7266c-4.7991-0.1126-4.5932,3.2633-3.3715,5.4766-3.0155-3.2594-2.3751-8.4817,3.3715-8.332z"/>
<path id="path6346" fill="#808080" d="m8.9421,672.29c-0.000227-0.018-0.000464-0.036-0.001-0.053,0.01626-1.7352,1.3915-3.1799,3.0771-3.2259,1.7602-0.076,3.0305,1.1264,3.0654,3.0183,0.000189,0.015,0.0022,0.029,0.0023,0.043-0.000488,0.017,0.000087,0.034-0.00002,0.051l-0.01686,11.518h-0.0029l0.0036,0.01,0.00008,0.091c-0.01263,1.0532-0.84786,1.9287-1.8711,1.9564-0.75859-0.1229-1.8589-0.8071-1.8667-1.8536l-0.000197-0.096,0.0023-1.089,0.000952-1.0003,0.01331-8.4345h0.0042l0.0016-0.9731h0.0301l-0.0017-0.026-0.0031-0.051c0.000649,0,0.002-0.01,0.0013-0.011,0.01427-0.3757,0.31331-0.6854,0.68055-0.6954,0.36407-0.01,0.63011,0.2504,0.64701,0.6299,0.000144,0.011,0.0031,0.022,0.0029,0.034l-0.0013,1.0558-0.01178,7.728,1.0561-0.03,0.01106-7.7287-0.05625-0.9946-0.000716-0.0007c-0.000042,0,0.000642,0-0.000096-0.01-0.000096-0.01-0.000558-0.016-0.001-0.025-0.01185-0.9771-0.66382-1.7459-1.615-1.7206-0.9508,0.026-1.6939,0.864-1.7078,1.8418h-0.0014l0.000615,0.02h-0.000643c-0.000682,0,0.000766,0,0.000082,0.01l-0.10538,10.406-0.000867,1.089-0.000895,0.096h0.0014c0.0096,1.6543,1.958,2.7721,2.9191,2.9135,1.6153-0.044,2.9273-1.4296,2.9292-3.0957,0.0004-0.024-0.0027-0.047-0.0034-0.072l0.0021-0.0007,0.01683-11.519h-0.0014c-0.00013-0.01,0.0012-0.018,0.0011-0.028,0.000509-0.015-0.0022-0.033-0.0024-0.049l0.000141-0.017-0.0011-0.0003c-0.03154-2.3187-1.8606-4.1392-4.1193-4.079-2.2798,0.062-4.1311,2.0186-4.1345,4.3696,0.00013,0.01,0.0013,0.018,0.0014,0.028h-0.0028l-0.01772,12.221,1.0565-0.029,0.01983-12.222z"/>
<path id="path6396" fill="#ececec" d="m16.451-184.56-9,0-4.5,3,0,6,18,0,0-6-4.5-3zm-1.5,7.5-1.5,0,0-0.99998c0-0.27502-0.225-0.50002-0.50002-0.50002h-2c-0.27497,0-0.50002,0.225-0.50002,0.50002v0.99998h-1.5v-2.5c0-0.27502,0.22505-0.50002,0.50002-0.50002h4.9999c0.27501,0,0.50006,0.225,0.50006,0.50002v2.5zm-12,9,18,0,0-6-18,0,0,6zm6-4.0001c0-0.27502,0.22505-0.49997,0.50002-0.49997h4.9999c0.27501,0,0.50006,0.22495,0.50006,0.49997v2.5h-1.5v-1c0-0.27502-0.225-0.49997-0.50002-0.49997h-2c-0.27497,0-0.50002,0.22495-0.50002,0.49997v1h-1.5v-2.5zm-6,11.5,18,0,0-6-18,0,0,6zm6-4c0-0.27502,0.22505-0.49997,0.50002-0.49997h4.9999c0.27501,0,0.50006,0.22495,0.50006,0.49997v2.5h-1.5v-1c0-0.27502-0.225-0.49997-0.50002-0.49997h-2c-0.27497,0-0.50002,0.22495-0.50002,0.49997v1h-1.5v-2.5z"/>
<path id="path4193" fill="#CCC" d="m18.799-80.585c1.7922,0,3.4006-0.97545,4.5-1.7133v13.961c-1.0994,0.738-2.7078,1.7136-4.5,1.7136s-3.4006-0.53145-4.5-1.2693-2.7078-1.2692-4.5-1.2692-3.4005,0.912-4.5,1.6498v-13.961c1.0995-0.738,2.7078-1.65,4.5-1.65s3.4006,0.53115,4.5,1.2692c1.0994,0.73785,2.7078,1.2692,4.5,1.2692zm-16.5-4.0383c0.82842,0,1.5,0.67155,1.5,1.5v22.5h-3v-22.5c0-0.82845,0.67158-1.5,1.5-1.5z"/>
<g id="g4264" fill="#808080" transform="matrix(0.03125,0,0,0.03125,4.0075732,1019.3678)">
<path id="path4256" fill="#808080" d="M256,0c-141.38,0-256,114.62-256,256s114.62,256,256,256,256-114.62,256-256-114.62-256-256-256zm128,288-256,0,0-64,256,0,0,64z"/>
</g>
</g>
</svg>
